<svg width="17" height="17" viewBox="0 0 17 17" fill="none" xmlns="http://www.w3.org/2000/svg">
<path d="M11.6121 16.5C10.4488 16.5 9.50834 15.5513 9.51659 14.388V11.5747C9.51659 10.4197 10.4406 9.471 11.5956 9.46275H14.4006C15.5638 9.46275 16.4961 10.4115 16.4961 11.5747V14.388C16.4961 15.5513 15.5638 16.4918 14.4006 16.5H11.6121ZM2.09159 16.5C0.928344 16.4918 -0.00390625 15.5513 -0.00390625 14.388V11.5747C-0.00390625 10.4115 0.928344 9.471 2.09159 9.46275H4.88009C6.03509 9.46275 6.97559 10.4033 6.97559 11.5665V14.388C6.97559 15.5513 6.04334 16.4918 4.88009 16.5H2.09159ZM11.6121 7.03725C10.4571 7.03725 9.51659 6.09675 9.51659 4.94175V2.112C9.50834 0.94875 10.4488 0 11.6121 0H14.4006C15.5638 0 16.4961 0.94875 16.4961 2.112V4.92525C16.4961 6.0885 15.5638 7.029 14.4006 7.03725H11.6121ZM2.09159 7.03725C0.928344 7.03725 -0.00390625 6.0885 -0.00390625 4.92525V2.112C-0.00390625 0.94875 0.928344 0 2.09159 0H4.88009C6.04334 0 6.97559 0.94875 6.97559 2.112V4.92525C6.97559 6.08025 6.05159 7.029 4.89659 7.03725H2.09159Z" fill="#343434"/>
</svg>
